<?xml version="1.0" encoding="UTF-8"?>
<svg id="Layer_1" data-name="Layer 1" xmlns="http://www.w3.org/2000/svg" viewBox="0 0 800 800">
  <defs>
    <style>
      .cls-1 {
        fill: #3e3e3f;
      }

      .cls-1, .cls-2 {
        stroke-width: 0px;
      }

      .cls-2 {
        fill: #e6e6e6;
      }
    </style>
  </defs>
  <path class="cls-1" d="M611.53,602.25l-38.07-19.2-21.11-25.66c41.14-39.82,66.72-95.61,66.72-157.39,0-38.04-9.69-73.81-26.75-104.98h38.7v-67.77h-51.18v-51.35h12.41v-5c0-8.62-8.91-15.38-20.29-15.38s-20.28,6.76-20.28,15.38v5h12.41v51.35h-9.51v17.51c-39.62-39.45-94.26-63.83-154.58-63.83-120.98,0-219.06,98.08-219.06,219.07,0,62.91,26.53,119.61,68.99,159.56l-23.38,28.42-38.07,19.2-46.91,48.89,88.68,12.66,150.34,28.73,43.51-6.11,145.66-27.55,88.68-12.67-46.91-48.88ZM556.68,170.9c0-5.73,6.84-10.38,15.28-10.38s15.28,4.65,15.28,10.38h-30.56ZM574.84,174.73v54.9h-5.76v-54.9h5.76ZM559.57,232.25h66.44v57.77h-38.81c-7.85-13.48-17.12-26.02-27.63-37.41v-20.36ZM212.88,305.07l.03-.07c8.79-18.38,20.21-35.27,33.77-50.17,37.91-41.66,92.56-67.82,153.32-67.82s114.48,25.71,152.35,66.75c10.23,11.08,19.25,23.28,26.89,36.4,2.81,4.84,5.44,9.79,7.87,14.87.78,1.64-1.22,3.18-2.6,2-49.72-42.26-114.13-67.76-184.5-67.76-56.44,0-109.05,16.42-153.32,44.72-10.03,6.41-19.63,13.43-28.75,21.01-.82.68-1.64,1.37-2.46,2.07-1.37,1.16-3.37-.37-2.59-2ZM222.21,507.62c-18.98-31.34-29.9-68.1-29.9-107.42,0-27.73,5.44-54.19,15.29-78.37,1.03-2.53,2.61-4.81,4.67-6.61,50.2-43.8,115.87-70.34,187.73-70.34s137.53,26.53,187.73,70.34c2.06,1.8,3.64,4.08,4.67,6.61,9.86,24.18,15.29,50.64,15.29,78.37,0,39.32-10.92,76.08-29.9,107.42-1.11,1.83-2.55,3.43-4.25,4.73-48.11,36.84-108.27,58.73-173.55,58.73s-125.44-21.9-173.55-58.73c-1.7-1.3-3.14-2.9-4.25-4.73ZM231.96,526.89c-1.5-2.08,1.08-4.64,3.16-3.15,46.52,33.1,103.43,52.57,164.88,52.57s118.35-19.47,164.88-52.57c2.09-1.49,4.66,1.08,3.16,3.15-37.58,52.15-98.85,86.1-168.04,86.1s-130.46-33.95-168.04-86.1ZM566.63,658.91l-143.67,26.73-41.98,5.81-147.6-27.75-78.07-10.97,39.03-40.02,37.73-18.72,22.76-27.22,1.83-.03c38.15,33.3,88.34,53.54,143.35,53.54s108.15-21.44,146.68-56.51l21.26,25.42,37.73,18.72,39.03,40.02-78.07,10.97Z"/>
  <path class="cls-2" d="M605.67,607.93l-37.73-18.72-21.26-25.42c-38.53,35.07-90.06,56.51-146.68,56.51s-105.21-20.24-143.35-53.54l-1.83.03-22.76,27.22-37.73,18.72-39.03,40.02,78.07,10.97,147.6,27.75,41.98-5.81,143.67-26.73,78.07-10.97-39.03-40.02Z"/>
  <path class="cls-2" d="M400,612.99c69.19,0,130.46-33.95,168.04-86.1,1.5-2.08-1.08-4.64-3.16-3.15-46.52,33.1-103.43,52.57-164.88,52.57s-118.35-19.47-164.88-52.57c-2.09-1.49-4.66,1.08-3.16,3.15,37.58,52.15,98.85,86.1,168.04,86.1Z"/>
  <path class="cls-2" d="M626.01,290.02v-57.77h-66.44v20.36c10.51,11.39,19.79,23.93,27.63,37.41h38.81ZM580.59,258.71c0-11.51,9.33-20.84,20.84-20.84s20.84,9.33,20.84,20.84-9.33,20.84-20.84,20.84-20.84-9.33-20.84-20.84Z"/>
  <path class="cls-2" d="M215.47,307.07c.82-.69,1.64-1.38,2.46-2.07,9.12-7.58,18.72-14.6,28.75-21.01,44.27-28.3,96.88-44.72,153.32-44.72,70.37,0,134.79,25.5,184.5,67.76,1.38,1.18,3.39-.36,2.6-2-2.43-5.07-5.05-10.03-7.87-14.87-7.63-13.11-16.66-25.32-26.89-36.4-37.87-41.04-92.1-66.75-152.35-66.75s-115.41,26.16-153.32,67.82c-13.56,14.9-24.98,31.79-33.77,50.17l-.03.07c-.77,1.62,1.22,3.16,2.59,2Z"/>
  <path class="cls-2" d="M573.55,512.35c1.7-1.3,3.14-2.9,4.25-4.73,18.98-31.34,29.9-68.1,29.9-107.42,0-27.73-5.44-54.19-15.29-78.37-1.03-2.53-2.61-4.81-4.67-6.61-50.2-43.8-115.87-70.34-187.73-70.34s-137.53,26.53-187.73,70.34c-2.06,1.8-3.64,4.08-4.67,6.61-9.86,24.18-15.29,50.64-15.29,78.37,0,39.32,10.92,76.08,29.9,107.42,1.11,1.83,2.55,3.43,4.25,4.73,48.11,36.84,108.27,58.73,173.55,58.73s125.44-21.9,173.55-58.73ZM379.08,456.63h0c-7.94,0-14.39-6.46-14.39-14.39v-84.48c0-7.94,6.46-14.39,14.39-14.39,2.5,0,4.98.67,7.18,1.94l73.16,42.24c4.5,2.6,7.19,7.25,7.19,12.45s-2.69,9.85-7.19,12.45l-73.16,42.24c-2.2,1.27-4.68,1.94-7.17,1.94Z"/>
  <circle class="cls-1" cx="601.43" cy="258.71" r="20.84" transform="translate(284.72 831.72) rotate(-84.35)"/>
  <rect class="cls-2" x="569.08" y="174.73" width="5.76" height="54.9"/>
  <path class="cls-2" d="M571.96,160.52c-8.44,0-15.28,4.65-15.28,10.38h30.56c0-5.73-6.84-10.38-15.28-10.38Z"/>
  <path class="cls-1" d="M466.61,400c0-5.2-2.69-9.85-7.19-12.45l-73.16-42.24c-2.2-1.27-4.68-1.94-7.18-1.94-7.94,0-14.39,6.46-14.39,14.39v84.48c0,7.94,6.46,14.39,14.39,14.39h0c2.5,0,4.98-.67,7.17-1.94l73.16-42.24c4.5-2.6,7.19-7.26,7.19-12.45ZM452.99,407l-66.59,38.45c-5.39,3.11-12.13-.78-12.13-7v-76.89c0-6.23,6.74-10.12,12.13-7l66.59,38.45c5.39,3.11,5.39,10.89,0,14.01Z"/>
  <path class="cls-2" d="M452.99,393l-66.59-38.45c-5.39-3.11-12.13.78-12.13,7v76.89c0,6.23,6.74,10.12,12.13,7l66.59-38.45c5.39-3.11,5.39-10.89,0-14.01Z"/>
</svg>